<?xml version="1.0" encoding="UTF-8" standalone="no"?>
<!-- Generator: Adobe Illustrator 15.1.0, SVG Export Plug-In  -->

<svg
   xmlns:a="http://ns.adobe.com/AdobeSVGViewerExtensions/3.0/"
   xmlns:dc="http://purl.org/dc/elements/1.1/"
   xmlns:cc="http://creativecommons.org/ns#"
   xmlns:rdf="http://www.w3.org/1999/02/22-rdf-syntax-ns#"
   xmlns:svg="http://www.w3.org/2000/svg"
   xmlns="http://www.w3.org/2000/svg"
   xmlns:xlink="http://www.w3.org/1999/xlink"
   xmlns:sodipodi="http://sodipodi.sourceforge.net/DTD/sodipodi-0.dtd"
   xmlns:inkscape="http://www.inkscape.org/namespaces/inkscape"
   version="1.1"
   x="0px"
   y="0px"
   width="24px"
   height="24px"
   viewBox="-2 0 24 24"
   style="overflow:visible;enable-background:new -2 0 24 24;"
   xml:space="preserve"
   preserveAspectRatio="xMinYMid meet"
   id="svg3066"
   inkscape:version="0.48.2 r9819"
   sodipodi:docname="icon_mindmap.svg"
   inkscape:export-filename="C:\Users\Erlebach\Dropbox\Moodle - Lernplattform\Präsentationen\Icons_fertig\icon_mindmap.png"
   inkscape:export-xdpi="1920"
   inkscape:export-ydpi="1920"><metadata
   id="metadata3145"><rdf:RDF><cc:Work
       rdf:about=""><dc:format>image/svg+xml</dc:format><dc:type
         rdf:resource="http://purl.org/dc/dcmitype/StillImage" /><dc:title></dc:title></cc:Work></rdf:RDF></metadata><sodipodi:namedview
   pagecolor="#ffffff"
   bordercolor="#666666"
   borderopacity="1"
   objecttolerance="10"
   gridtolerance="10"
   guidetolerance="10"
   inkscape:pageopacity="0"
   inkscape:pageshadow="2"
   inkscape:window-width="1680"
   inkscape:window-height="988"
   id="namedview3143"
   showgrid="true"
   inkscape:zoom="27.812867"
   inkscape:cx="24.63893"
   inkscape:cy="12.569697"
   inkscape:window-x="-8"
   inkscape:window-y="-8"
   inkscape:window-maximized="1"
   inkscape:current-layer="svg3066"><inkscape:grid
     type="xygrid"
     id="grid3147"
     empspacing="5"
     visible="true"
     enabled="true"
     snapvisiblegridlinesonly="true" /></sodipodi:namedview>
<defs
   id="defs3068"><linearGradient
   inkscape:collect="always"
   id="linearGradient4024"><stop
     style="stop-color:#ffeeaa;stop-opacity:1;"
     offset="0"
     id="stop4026" /><stop
     style="stop-color:#ffeeaa;stop-opacity:0;"
     offset="1"
     id="stop4028" /></linearGradient><linearGradient
   id="linearGradient3970"><stop
     style="stop-color:#677821;stop-opacity:1;"
     offset="0"
     id="stop3972" /><stop
     id="stop3982"
     offset="0.22222222"
     style="stop-color:#abc837;stop-opacity:1;" /><stop
     style="stop-color:#677821;stop-opacity:1;"
     offset="1"
     id="stop3974" /></linearGradient>
<linearGradient
   inkscape:collect="always"
   xlink:href="#linearGradient3970"
   id="linearGradient3976"
   x1="6"
   y1="19.5"
   x2="14"
   y2="19.5"
   gradientUnits="userSpaceOnUse" /><linearGradient
   inkscape:collect="always"
   xlink:href="#linearGradient3970"
   id="linearGradient3978"
   x1="6"
   y1="20.5"
   x2="14"
   y2="20.5"
   gradientUnits="userSpaceOnUse"
   gradientTransform="translate(2,0)" /><linearGradient
   inkscape:collect="always"
   xlink:href="#linearGradient3970"
   id="linearGradient3980"
   x1="8"
   y1="22"
   x2="12"
   y2="22"
   gradientUnits="userSpaceOnUse" /><linearGradient
   inkscape:collect="always"
   xlink:href="#linearGradient3970"
   id="linearGradient3990"
   x1="-2"
   y1="12"
   x2="22"
   y2="12"
   gradientUnits="userSpaceOnUse" /><radialGradient
   inkscape:collect="always"
   xlink:href="#linearGradient4024"
   id="radialGradient4030"
   cx="12"
   cy="9.5"
   fx="12"
   fy="9.5"
   r="8"
   gradientTransform="matrix(1,0,0,1.1875,0,-1.78125)"
   gradientUnits="userSpaceOnUse" /></defs>
<linearGradient
   id="SVGID_1_"
   gradientUnits="userSpaceOnUse"
   x1="12.0005"
   y1="0"
   x2="12.0005"
   y2="24.0005">
	<stop
   offset="0"
   style="stop-color:#90C50E"
   id="stop3071" />
	<stop
   offset="1"
   style="stop-color:#70A034"
   id="stop3073" />
	<a:midPointStop
   offset="0"
   style="stop-color:#90C50E" />
	<a:midPointStop
   offset="0.5"
   style="stop-color:#90C50E" />
	<a:midPointStop
   offset="1"
   style="stop-color:#70A034" />
</linearGradient>

<linearGradient
   id="SVGID_2_"
   gradientUnits="userSpaceOnUse"
   x1="12.0005"
   y1="1"
   x2="12.0005"
   y2="23.0005">
	<stop
   offset="0"
   style="stop-color:#D9F991"
   id="stop3078" />
	<stop
   offset="0.2388"
   style="stop-color:#D7F88D"
   id="stop3080" />
	<stop
   offset="0.4501"
   style="stop-color:#D1F383"
   id="stop3082" />
	<stop
   offset="0.6509"
   style="stop-color:#C6EC71"
   id="stop3084" />
	<stop
   offset="0.844"
   style="stop-color:#B7E257"
   id="stop3086" />
	<stop
   offset="1"
   style="stop-color:#A8D73D"
   id="stop3088" />
	<a:midPointStop
   offset="0"
   style="stop-color:#D9F991" />
	<a:midPointStop
   offset="0.7317"
   style="stop-color:#D9F991" />
	<a:midPointStop
   offset="1"
   style="stop-color:#A8D73D" />
</linearGradient>

<linearGradient
   id="SVGID_3_"
   gradientUnits="userSpaceOnUse"
   x1="12.0005"
   y1="2"
   x2="12.0005"
   y2="22.0005">
	<stop
   offset="0"
   style="stop-color:#B3E810"
   id="stop3093" />
	<stop
   offset="1"
   style="stop-color:#90C60D"
   id="stop3095" />
	<a:midPointStop
   offset="0"
   style="stop-color:#B3E810" />
	<a:midPointStop
   offset="0.5"
   style="stop-color:#B3E810" />
	<a:midPointStop
   offset="1"
   style="stop-color:#90C60D" />
</linearGradient>

<linearGradient
   id="SVGID_4_"
   gradientUnits="userSpaceOnUse"
   x1="12.0005"
   y1="4"
   x2="12.0005"
   y2="9">
	<stop
   offset="0"
   style="stop-color:#90C50E"
   id="stop3100" />
	<stop
   offset="1"
   style="stop-color:#70A034"
   id="stop3102" />
	<a:midPointStop
   offset="0"
   style="stop-color:#90C50E" />
	<a:midPointStop
   offset="0.5"
   style="stop-color:#90C50E" />
	<a:midPointStop
   offset="1"
   style="stop-color:#70A034" />
</linearGradient>

<linearGradient
   id="SVGID_5_"
   gradientUnits="userSpaceOnUse"
   x1="2.5"
   y1="0"
   x2="2.5"
   y2="24.0005">
	<stop
   offset="0"
   style="stop-color:#656565"
   id="stop3107" />
	<stop
   offset="1.342887e-02"
   style="stop-color:#646464"
   id="stop3109" />
	<stop
   offset="0.4453"
   style="stop-color:#3C3C3C"
   id="stop3111" />
	<stop
   offset="0.7891"
   style="stop-color:#242424"
   id="stop3113" />
	<stop
   offset="1"
   style="stop-color:#1B1B1B"
   id="stop3115" />
	<a:midPointStop
   offset="0"
   style="stop-color:#656565" />
	<a:midPointStop
   offset="0.4"
   style="stop-color:#656565" />
	<a:midPointStop
   offset="1"
   style="stop-color:#1B1B1B" />
</linearGradient>

<linearGradient
   id="SVGID_6_"
   gradientUnits="userSpaceOnUse"
   x1="2.5"
   y1="1"
   x2="2.5"
   y2="23.0005">
	<stop
   offset="0"
   style="stop-color:#8E8E8E"
   id="stop3120" />
	<stop
   offset="4.191053e-02"
   style="stop-color:#8A8A8A"
   id="stop3122" />
	<stop
   offset="0.4613"
   style="stop-color:#626262"
   id="stop3124" />
	<stop
   offset="0.7952"
   style="stop-color:#4A4A4A"
   id="stop3126" />
	<stop
   offset="1"
   style="stop-color:#414141"
   id="stop3128" />
	<a:midPointStop
   offset="0"
   style="stop-color:#8E8E8E" />
	<a:midPointStop
   offset="0.4"
   style="stop-color:#8E8E8E" />
	<a:midPointStop
   offset="1"
   style="stop-color:#414141" />
</linearGradient>

<linearGradient
   id="SVGID_7_"
   gradientUnits="userSpaceOnUse"
   x1="2.5"
   y1="2"
   x2="2.5"
   y2="22.0005">
	<stop
   offset="0"
   style="stop-color:#7C7C7C"
   id="stop3133" />
	<stop
   offset="0.3898"
   style="stop-color:#5C5C5C"
   id="stop3135" />
	<stop
   offset="0.768"
   style="stop-color:#444444"
   id="stop3137" />
	<stop
   offset="1"
   style="stop-color:#3B3B3B"
   id="stop3139" />
	<a:midPointStop
   offset="0"
   style="stop-color:#7C7C7C" />
	<a:midPointStop
   offset="0.4"
   style="stop-color:#7C7C7C" />
	<a:midPointStop
   offset="1"
   style="stop-color:#3B3B3B" />
</linearGradient>

<path
   style="fill:#bcd35f;stroke:none;stroke-width:1px;stroke-linecap:butt;stroke-linejoin:miter;stroke-opacity:1"
   d="m 10,9 0,1 5,0 0,-1 z"
   id="path3995"
   inkscape:connector-curvature="0"
   transform="translate(-2,0)" /><path
   style="fill:#445016;stroke:none;stroke-width:1px;stroke-linecap:butt;stroke-linejoin:miter;stroke-opacity:1"
   d="m 11,19 0,-6 -2,-4 1,-1 2,4 1,0 2,-4 1,1 -2,4 0,6 -1,0 0,-6 -1,0 0,6 z"
   id="path3993"
   inkscape:connector-curvature="0"
   transform="translate(-2,0)" /><path
   sodipodi:nodetypes="cssscc"
   transform="translate(-2,0)"
   inkscape:connector-curvature="0"
   id="path4022"
   d="M 8,19 C 8,11 4,12 4,7 4,3 8,0 12,0 c 4,0 8,3 8,7 0,5 -4,4 -4,12 -5,0 -2.656388,0 -8,0 z"
   style="opacity:1;fill:url(#radialGradient4030);fill-opacity:1;stroke:none" /><path
   style="opacity:0.8;fill:#89a02c;fill-opacity:1;stroke:none"
   d="M 8,19 C 8,11 4,12 4,7 4,3 8,0 12,0 c 4,0 8,3 8,7 0,5 -4,4 -4,12 0,0.333333 -1,0.333333 -1,0 0,-9 4,-7 4,-12 C 19,4 16,1 12,1 8,1 5,4 5,7 c 0,5 4,3 4,12 z"
   id="path3954"
   inkscape:connector-curvature="0"
   transform="translate(-2,0)"
   sodipodi:nodetypes="csssssccscc" /><path
   style="fill:#dde9af;stroke:none;opacity:0.69999999999999996"
   d="M 6,7 C 5.1137312,4.5520814 9.6423735,0.89574682 12,2 12.301863,2.1413851 12.333333,3 12,3 10,3 7,5 7,7 7,7.3333333 6.1134751,7.3134239 6,7 z"
   id="path3956"
   inkscape:connector-curvature="0"
   transform="translate(-2,0)"
   sodipodi:nodetypes="sssss" /><path
   style="opacity:1;fill:url(#linearGradient3978);fill-opacity:1;stroke:none"
   d="M 8 18 L 8 19.65625 L 8 21 L 8 21.34375 C 8 22.267083 8.892 23 10 23 L 10.1875 23 C 10.499903 23.579829 11.185294 24 12 24 C 12.814706 24 13.500097 23.579829 13.8125 23 L 14 23 C 15.108 23 16 22.267083 16 21.34375 L 16 21 L 16 19.65625 L 16 18 L 14 18 L 10 18 L 8 18 z "
   transform="translate(-2,0)"
   id="rect3160" /><path
   style="opacity:0.8;fill:#ffffff;fill-opacity:1;stroke:none"
   d="M 16 18.46875 L 8 19.71875 L 8 20.71875 L 16 19.46875 L 16 18.46875 z "
   transform="translate(-2,0)"
   id="rect3939" /><path
   style="opacity:0.8;fill:#ffffff;fill-opacity:1;stroke:none"
   d="M 16 20.28125 L 8.03125 21.5625 C 8.0871687 21.922237 8.2771465 22.25264 8.5625 22.5 L 16 21.3125 L 16 21 L 16 20.28125 z "
   transform="translate(-2,0)"
   id="rect3943" /></svg>
