<?xml version="1.0" encoding="utf-8"?>
<!-- Generator: Adobe Illustrator 26.5.0, SVG Export Plug-In . SVG Version: 6.00 Build 0)  -->
<svg version="1.1"
	 id="svg3066" xmlns:dc="http://purl.org/dc/elements/1.1/" xmlns:svg="http://www.w3.org/2000/svg" xmlns:cc="http://creativecommons.org/ns#" xmlns:rdf="http://www.w3.org/1999/02/22-rdf-syntax-ns#"
	 xmlns="http://www.w3.org/2000/svg" xmlns:xlink="http://www.w3.org/1999/xlink" x="0px" y="0px" viewBox="0 0 24 24"
	 style="enable-background:new 0 0 24 24;" xml:space="preserve">
<style type="text/css">
	.st0{opacity:0.5;}
	.st1{opacity:0.8;}
	.st2{opacity:0.7;}
	.st3{fill:#FFFFFF;}
</style>
<path id="filament" class="st0" d="M10,9v1h5V9H10z"/>
<path id="wire" d="M11,19v-6L9,9l1-1l2,4h1l2-4l1,1l-2,4v6h-1v-6h-1v6H11z"/>
<path id="glass" class="st1" d="M8,19c0-8-4-7-4-12
	c0-4,4-7,8-7s8,3,8,7c0,5-4,4-4,12c0,0.3-1,0.3-1,0c0-9,4-7,4-12c0-3-3-6-7-6S5,4,5,7c0,5,4,3,4,12H8z"/>
<path id="glint" class="st2" d="M6,7c-0.9-2.4,3.6-6.1,6-5
	c0.3,0.1,0.3,1,0,1c-2,0-5,2-5,4C7,7.3,6.1,7.3,6,7z"/>
<path id="base" d="M8,18v1.7V21v0.3c0,0.9,0.9,1.7,2,1.7h0.2c0.3,0.6,1,1,1.8,1s1.5-0.4,1.8-1H14c1.1,0,2-0.7,2-1.7V21v-1.3V18
	h-2h-4H8z"/>
<path id="thread1" class="st3" d="M16,18.5l-8,1.2v1l8-1.2V18.5z"/>
<path id="thread2" class="st3" d="M16,20.3l-8,1.3c0.1,0.4,0.2,0.7,0.5,0.9l7.4-1.2V21V20.3z"/>
</svg>
